<svg width="20" height="21" viewBox="0 0 20 21" fill="none" xmlns="http://www.w3.org/2000/svg">
<g clip-path="url(#clip0_169_286)">
<path d="M9.15772 16.2094C7.57178 14.1248 4.04443 9.07231 4.04443 6.23437C4.04443 2.79118 6.65607 0 9.87777 0C13.0983 0 15.7111 2.79118 15.7111 6.23437C15.7111 9.07231 12.1564 14.1248 10.5978 16.2094C10.2241 16.7062 9.53141 16.7062 9.15772 16.2094ZM9.87777 8.3125C10.9502 8.3125 11.8222 7.38059 11.8222 6.23437C11.8222 5.08816 10.9502 4.15625 9.87777 4.15625C8.80528 4.15625 7.93332 5.08816 7.93332 6.23437C7.93332 7.38059 8.80528 8.3125 9.87777 8.3125Z" fill="white"/>
</g>
<defs>
<clipPath id="clip0_169_286">
<rect width="11.6667" height="16.625" fill="white" transform="translate(4.04443)"/>
</clipPath>
</defs>
</svg>
