<?xml version="1.0" encoding="UTF-8"?>
<svg id="Layer_1" data-name="Layer 1" xmlns="http://www.w3.org/2000/svg" xmlns:xlink="http://www.w3.org/1999/xlink" viewBox="0 0 1000 1000">
  <defs>
    <style>
      .cls-1 {
        fill: url(#linear-gradient-2);
      }

      .cls-2 {
        fill: url(#linear-gradient-4);
      }

      .cls-3 {
        fill: url(#linear-gradient-3);
      }

      .cls-4 {
        fill: url(#linear-gradient-5);
      }

      .cls-5 {
        fill: url(#linear-gradient-7);
      }

      .cls-6 {
        fill: url(#linear-gradient-6);
      }

      .cls-7 {
        fill: url(#linear-gradient);
      }
    </style>
    <linearGradient id="linear-gradient" x1="307.34" y1="502.17" x2="714.99" y2="502.17" gradientUnits="userSpaceOnUse">
      <stop offset="0" stop-color="#55f"/>
      <stop offset="1" stop-color="#89cda9"/>
    </linearGradient>
    <linearGradient id="linear-gradient-2" x1="489.86" y1="374.99" x2="714.13" y2="374.99" xlink:href="#linear-gradient"/>
    <linearGradient id="linear-gradient-3" x1="481.13" y1="370.53" x2="724.69" y2="370.53" xlink:href="#linear-gradient"/>
    <linearGradient id="linear-gradient-4" x1="552.99" y1="400.62" x2="657.39" y2="400.62" xlink:href="#linear-gradient"/>
    <linearGradient id="linear-gradient-5" x1="618.8" y1="378.3" x2="669.37" y2="378.3" xlink:href="#linear-gradient"/>
    <linearGradient id="linear-gradient-6" x1="542.52" y1="424.71" x2="646.76" y2="424.71" xlink:href="#linear-gradient"/>
    <linearGradient id="linear-gradient-7" x1="532.07" y1="438.8" x2="569.07" y2="438.8" xlink:href="#linear-gradient"/>
  </defs>
  <path class="cls-7" d="M714.58,469.38l-63.27,162.54c-.04.08-.09.13-.13.21-.15.36-.36.73-.61,1.07-.06.1-.12.19-.19.29-.02.02-.04.06-.08.09-.31.34-.65.65-1.03.92-.09.08-.21.11-.31.19-.34.21-.69.38-1.07.52-.13.04-.27.1-.42.13-.48.13-1,.23-1.51.23h-301.21c-.44,0-.86-.06-1.28-.15-.09-.02-.21-.06-.32-.1-.31-.08-.61-.19-.9-.34-.09-.04-.19-.1-.29-.13-.74-.42-1.38-.97-1.87-1.66-.02-.04-.06-.08-.1-.11-.04-.06-.04-.11-.07-.17-.19-.29-.34-.59-.48-.9-.04-.1-.08-.17-.1-.25-.15-.4-.25-.8-.31-1.22l-31.65-255.28c-.19-1.65.31-3.29,1.4-4.53,1.09-1.22,2.68-1.93,4.32-1.93h124.22c2.68,0,5.01,1.85,5.6,4.46l9.05,39.41h22.73l-11.99,32.36h-100.72l-15.3,163.97,55.97-143.76c.86-2.22,2.98-3.67,5.35-3.67h301.21c1.89,0,3.67.94,4.74,2.5,1.09,1.57,1.32,3.58.61,5.33Z"/>
  <g>
    <g>
      <polygon class="cls-1" points="597.48 305.79 528.53 339.96 508.01 395.3 496 427.66 489.86 444.2 498.62 444.2 670.09 444.2 678.83 444.2 714.13 349.04 597.48 305.79"/>
      <path class="cls-3" d="M597.01,296.86l-75.03,37.19-22.72,61.25-4.44,11.95-7.55,20.4-4.44,11.95-1.7,4.59h17.5l1.7-4.59,4.44-11.95,7.55-20.4,4.44-11.95,13.35-35.97,69.11,5.16,7.09-46.7,97.3,36.08-33.5,90.31h17.5l37.1-99.99-127.68-47.35ZM585.27,347l-45.61-3.4,49.89-24.72-4.28,28.13Z"/>
    </g>
    <path class="cls-2" d="M656.97,419.82c-1.29,3.48-5.16,5.26-8.65,3.97l-90.95-33.73c-3.48-1.29-5.26-5.16-3.97-8.64h0c1.29-3.48,5.16-5.26,8.64-3.97l90.95,33.73c3.49,1.29,5.26,5.16,3.97,8.65h0Z"/>
    <path class="cls-4" d="M668.95,387.53c-1.29,3.48-5.16,5.26-8.65,3.97l-37.11-13.77c-3.49-1.29-5.26-5.16-3.97-8.65h0c1.29-3.48,5.16-5.26,8.65-3.97l37.11,13.77c3.49,1.29,5.26,5.16,3.97,8.65h0Z"/>
    <path class="cls-6" d="M642.54,439.38l-31.61-11.72-59.34-22.01c-.77-.29-1.57-.42-2.35-.42-2.72,0-5.28,1.66-6.29,4.38-1.3,3.48.48,7.36,3.98,8.64l25.37,9.41,44.59,16.54h29.87c-.48-2.14-2.01-4.02-4.23-4.82Z"/>
    <path class="cls-5" d="M569.07,444.2h-35.64c-1.34-1.78-1.76-4.15-.94-6.39,1.01-2.72,3.59-4.4,6.33-4.4.77,0,1.55.13,2.31.42l27.94,10.36Z"/>
  </g>
</svg>