<svg width="18" height="13" viewBox="0 0 18 13" fill="none" xmlns="http://www.w3.org/2000/svg">
<path d="M2.67614 0.800049L15.2636 0.800049C16.4511 0.800049 17.0496 1.36055 17.0496 2.50055V10.4995C17.0496 11.63 16.4511 12.2 15.2636 12.2H2.67614C1.48864 12.2 0.890137 11.63 0.890137 10.4995L0.890137 2.50055C0.890137 1.36055 1.48864 0.800049 2.67614 0.800049ZM8.96514 8.97005L15.3681 3.71655C15.5961 3.52655 15.7766 3.08955 15.4916 2.70005C15.2161 2.31055 14.7126 2.30105 14.3801 2.53855L8.96514 6.20555L3.55964 2.53855C3.22714 2.30105 2.72364 2.31055 2.44814 2.70005C2.16314 3.08955 2.34364 3.52655 2.57164 3.71655L8.96514 8.97005Z" fill="white"/>
</svg>
