<svg width="19" height="19" viewBox="0 0 19 19" fill="none" xmlns="http://www.w3.org/2000/svg">
<path d="M2.56797 4.27129L4.54404 2.29707C4.68344 2.15706 4.84912 2.04598 5.03157 1.97019C5.21403 1.89441 5.40966 1.85542 5.60723 1.85547C6.00986 1.85547 6.38838 2.01318 6.67226 2.29707L8.79863 4.42344C8.93864 4.56283 9.04973 4.72851 9.12551 4.91097C9.20129 5.09342 9.24028 5.28905 9.24023 5.48662C9.24023 5.88926 9.08252 6.26777 8.79863 6.55166L7.24375 8.10654C7.60771 8.90877 8.11374 9.63858 8.7374 10.2607C9.3595 10.8859 10.0892 11.3938 10.8916 11.76L12.4465 10.2051C12.5859 10.0651 12.7516 9.95398 12.934 9.8782C13.1165 9.80242 13.3121 9.76343 13.5097 9.76348C13.9123 9.76348 14.2908 9.92119 14.5747 10.2051L16.7029 12.3296C16.8431 12.4692 16.9543 12.6352 17.0301 12.818C17.1059 13.0008 17.1448 13.1968 17.1445 13.3946C17.1445 13.7973 16.9868 14.1758 16.7029 14.4597L14.7306 16.432C14.2778 16.8866 13.6525 17.1445 13.0105 17.1445C12.8751 17.1445 12.7452 17.1334 12.6172 17.1111C10.116 16.6992 7.63525 15.3688 5.6332 13.3687C3.63301 11.3703 2.30449 8.89141 1.88701 6.38281C1.76084 5.6165 2.01504 4.82793 2.56797 4.27129Z" fill="white"/>
</svg>
