<?xml version="1.0" encoding="UTF-8"?>
<svg id="Layer_1" data-name="Layer 1" xmlns="http://www.w3.org/2000/svg" xmlns:xlink="http://www.w3.org/1999/xlink" viewBox="0 0 1000 1000">
  <defs>
    <style>
      .cls-1 {
        fill: url(#linear-gradient);
      }
    </style>
    <linearGradient id="linear-gradient" x1="343.25" y1="500" x2="643.1" y2="500" gradientUnits="userSpaceOnUse">
      <stop offset="0" stop-color="#55f"/>
      <stop offset="1" stop-color="#89cda9"/>
    </linearGradient>
  </defs>
  <path class="cls-1" d="M493.17,338.05c-82.66,0-149.92,67.26-149.92,149.92,0,32.36,10.15,63.18,29.35,89.11,1.21,1.64,1.65,3.74,1.19,5.73l-18.15,79.14,64.95-38.99c2.04-1.22,4.55-1.33,6.69-.29,20.6,10.1,42.77,15.22,65.89,15.22,82.67,0,149.93-67.25,149.93-149.92s-67.26-149.92-149.93-149.92ZM497.53,568.92c0,9.8-7.54,17.35-17.85,17.35s-17.86-7.55-17.86-17.35v-2.52c0-9.8,7.55-17.35,17.86-17.35s17.85,7.55,17.85,17.35v2.52ZM543.79,458.28c0,31.68-22.88,46.02-50.79,50.79l-1,11.57c-1.01,5.53-5.03,10.06-10.81,10.06h-1.51c-5.79,0-10.06-4.28-10.82-10.06l-2.51-21.62c-1.01-6.79,3.02-11.82,9.81-12.58,23.63-2.26,36.71-11.31,36.71-27.15v-.5c0-14.08-10.82-23.89-28.92-23.89-13.33,0-24.14,4.78-34.19,13.83-2.52,2.01-5.79,3.52-9.31,3.52-7.79,0-14.08-6.29-14.08-13.83,0-3.77,1.51-7.79,5.03-10.81,13.33-12.57,30.17-20.87,53.31-20.87,35.2,0,59.08,19.61,59.08,51.04v.5Z"/>
</svg>