<?xml version="1.0" encoding="UTF-8"?>
<svg id="Layer_1" data-name="Layer 1" xmlns="http://www.w3.org/2000/svg" viewBox="0 0 1000 1000">
  <defs>
    <style>
      .cls-1 {
        fill: #fff;
        fill-rule: evenodd;
      }
    </style>
  </defs>
  <path class="cls-1" d="M653.41,285.47c96.63,88.56,103.17,238.74,14.61,335.38-76.23,83.17-198.1,99.58-292.19,46.07l-18.71,5.9-82.55,26.01,18.73-84.49,4.25-19.15c-61.49-89.08-55.74-211.92,20.48-295.09,88.56-96.63,238.74-103.17,335.38-14.61h0ZM696.06,472.47c.03-.45.06-.9.08-1.35.03-.62.05-1.24.08-1.86.05-1.08.09-2.17.12-3.25.02-.63.02-1.26.03-1.89.02-1.06.04-2.13.04-3.19,0-.15,0-.29,0-.44,0-.62-.02-1.23-.02-1.84,0-.9-.01-1.8-.03-2.7-.02-.96-.05-1.92-.09-2.88-.02-.66-.05-1.31-.07-1.97-.05-1.18-.12-2.36-.2-3.54-.03-.4-.05-.8-.08-1.2-.1-1.41-.21-2.81-.34-4.22l-.04-.41c-9.48-103.76-96.74-185.07-202.96-185.07-112.55,0-203.83,91.28-203.83,203.83,0,45.88,15.17,88.22,40.76,122.28l-.19.88-4.9,22.18-1.59,7.18-9.66,43.71,42.7-13.43,14.25-4.48,15.43-4.85c31.11,19.24,67.77,30.35,107.03,30.35,108.53,0,197.27-84.87,203.47-191.85Z"/>
  <path class="cls-1" d="M493.06,575.26c5.22-.05,10-1.34,14.23-3.88,4.28-2.54,7.71-5.97,10.25-10.25,2.54-4.23,3.83-9,3.88-14.23-.05-5.22-1.34-10-3.88-14.23-2.54-4.28-5.97-7.71-10.25-10.25-4.23-2.54-9.01-3.83-14.23-3.88-5.22.05-10,1.34-14.23,3.88-4.28,2.54-7.71,5.97-10.25,10.25-2.54,4.23-3.83,9.01-3.88,14.23.05,5.22,1.34,10,3.88,14.23,2.54,4.28,5.97,7.71,10.25,10.25,4.23,2.54,9.01,3.83,14.23,3.88h0ZM516.94,485.19c.05-3.38,1.24-6.72,3.53-9.9,2.29-3.18,5.22-6.47,8.86-9.8,3.58-3.33,7.46-6.92,11.49-10.75,4.03-3.83,7.91-8.06,11.49-12.74,3.63-4.68,6.57-9.9,8.86-15.77,2.29-5.87,3.48-12.49,3.53-19.85-.05-7.76-1.29-14.83-3.83-21.1-2.49-6.32-5.92-11.89-10.35-16.67-4.38-4.83-9.45-8.86-15.23-12.09-5.77-3.28-11.94-5.72-18.51-7.36-6.57-1.64-13.29-2.49-20.15-2.49-11.09,0-21.54,1.89-31.3,5.62-9.75,3.73-18.41,9.16-25.97,16.32-7.51,7.12-13.53,15.87-17.96,26.12l41.2,23.58c1.99-4.73,4.43-8.96,7.36-12.74,2.94-3.78,6.47-6.77,10.55-8.96,4.08-2.19,8.86-3.33,14.33-3.38,7.56.05,13.19,1.64,16.77,4.73,3.58,3.09,5.37,7.31,5.32,12.59-.05,4.33-1.24,8.41-3.53,12.24-2.29,3.78-5.22,7.46-8.86,11.05-3.58,3.53-7.46,7.16-11.49,10.8-4.03,3.63-7.91,7.46-11.49,11.49-3.63,4.08-6.57,8.46-8.86,13.23-2.29,4.73-3.48,10.05-3.53,15.82v19.82h47.76v-19.82Z"/>
</svg>