<?xml version="1.0" encoding="UTF-8"?>
<svg id="Layer_1" data-name="Layer 1" xmlns="http://www.w3.org/2000/svg" viewBox="0 0 1000 1000">
  <defs>
    <style>
      .cls-1, .cls-2 {
        fill: #fff;
      }

      .cls-2 {
        fill-rule: evenodd;
      }
    </style>
  </defs>
  <path class="cls-2" d="M617.41,405.16h-231.88c-5.39-.03-9.82,4.39-9.49,9.82l16.87,275.32c.77,12.95.73,33.92,28.66,33.92h170.44c27.92,0,27.89-20.97,28.69-33.92l16.84-275.32c.33-5.42-4.09-9.85-9.49-9.82h-10.65ZM498.49,476.52v176.33c0,4.56,3.73,8.29,8.29,8.29s8.32-3.73,8.32-8.29v-176.33c0-4.56-3.73-8.29-8.32-8.29s-8.29,3.73-8.29,8.29h0ZM573.45,477.55c.13-4.53-3.39-8.46-7.92-8.79-4.59-.33-8.52,3.23-8.69,7.79-2.4,71.99-3.49,103.81-5.92,175.77-.13,4.53,3.39,8.45,7.92,8.79,4.59.33,8.52-3.23,8.65-7.79,2.43-71.96,3.53-103.81,5.96-175.77h0ZM440.15,477.48c2.43,71.96,3.53,103.88,5.92,175.83.17,4.56,4.09,8.12,8.65,7.79,4.53-.33,8.09-4.26,7.95-8.79-2.43-71.96-3.53-103.88-5.92-175.83-.17-4.56-4.09-8.12-8.69-7.79-4.49.33-8.06,4.26-7.92,8.79h0Z"/>
  <path class="cls-2" d="M349.62,357.2h0c-3,5.19-3.83,11.32-2.26,17.11l4.23,15.81v.03c1.33,4.26,5.69,6.79,10.05,5.83l.1-.03,258.97-69.4.03-.03c4.26-1.3,6.79-5.69,5.79-10.02v-.1l-4.23-15.78c-1.56-5.79-5.36-10.65-10.52-13.65l-.03-.03c-5.19-2.96-11.32-3.83-17.07-2.26l-231.38,62.01c-5.79,1.53-10.68,5.32-13.68,10.48v.03Z"/>
  <path class="cls-1" d="M439.38,291.63l61.87-16.57c2.1-.57,4.19-.9,6.29-1.03,2.13-.17,4.26-.07,6.36.2,2.13.3,4.23.77,6.22,1.46,2.03.7,3.99,1.56,5.82,2.63l.13.07v.03c1.8,1.03,3.49,2.26,5.09,3.66,1.6,1.4,3.06,2.93,4.36,4.62,1.3,1.7,2.43,3.5,3.36,5.43.93,1.86,1.7,3.86,2.26,5.96l3,11.15-16.41,4.39-3-11.15c-.27-1-.63-1.96-1.06-2.86h0c-.47-.93-1-1.8-1.6-2.56-.63-.83-1.33-1.56-2.1-2.23-.8-.67-1.63-1.3-2.53-1.8-.87-.5-1.83-.93-2.8-1.27-.96-.33-1.96-.57-2.96-.7-1-.13-2.03-.17-3.03-.1h0c-1,.07-2.03.2-3.03.5l-61.87,16.57c-1,.27-1.96.63-2.86,1.07h0c-.93.47-1.8,1-2.56,1.6-.83.63-1.56,1.33-2.23,2.1-.7.77-1.3,1.63-1.8,2.5-.53.9-.93,1.83-1.26,2.83-.33.97-.57,1.96-.7,2.96-.13,1-.2,2-.13,3.03h.03c.03,1,.2,2.03.47,3.03l3,11.15-16.38,4.39-3-11.15c-.57-2.1-.9-4.19-1.03-6.29-.17-2.13-.07-4.26.2-6.36.3-2.13.77-4.23,1.46-6.22.66-2,1.53-3.89,2.56-5.72h0l.07-.1c1.07-1.86,2.33-3.59,3.73-5.22,1.4-1.6,2.96-3.06,4.66-4.36,1.7-1.3,3.5-2.43,5.43-3.39,1.86-.9,3.86-1.66,5.96-2.23h0Z"/>
</svg>