<?xml version="1.0" encoding="UTF-8"?>
<svg id="Layer_1" data-name="Layer 1" xmlns="http://www.w3.org/2000/svg" viewBox="0 0 1000 1000">
  <defs>
    <style>
      .cls-1 {
        fill: #fff;
      }
    </style>
  </defs>
  <path class="cls-1" d="M509.84,158.6c-165.11,0-298.95,134.32-298.95,300s133.84,300,298.95,300,298.95-134.32,298.95-300-133.84-300-298.95-300ZM460.85,353.7l48.99-67.92,48.99,67.92,48.99,67.92h-58.51v130.28h-78.94v-130.28h-58.51l48.99-67.92ZM677.15,589.08c0,23.35-18.99,42.34-42.34,42.34h-249.94c-23.35,0-42.34-18.99-42.34-42.34v-73.89c0-8.99,7.29-16.28,16.29-16.28s16.28,7.29,16.28,16.28v73.89c0,5.3,4.47,9.77,9.77,9.77h249.94c5.3,0,9.77-4.47,9.77-9.77v-73.89c0-8.99,7.29-16.28,16.28-16.28s16.29,7.29,16.29,16.28v73.89Z"/>
</svg>