<?xml version="1.0" encoding="UTF-8"?>
<svg xmlns="http://www.w3.org/2000/svg" xmlns:xlink="http://www.w3.org/1999/xlink" viewBox="0 0 1808 1080">
  <defs>
    <style>
      .cls-1 {
        fill: url(#linear-gradient-15);
      }

      .cls-2 {
        fill: url(#linear-gradient-13);
      }

      .cls-3 {
        opacity: .4;
      }

      .cls-3, .cls-4, .cls-5, .cls-6 {
        fill: #33d0eb;
      }

      .cls-7 {
        mask: url(#mask-5);
      }

      .cls-8 {
        fill: url(#linear-gradient-2);
      }

      .cls-9 {
        fill: url(#linear-gradient-3);
        opacity: .9;
      }

      .cls-10 {
        mask: url(#mask-1);
      }

      .cls-11 {
        fill: url(#linear-gradient-18);
      }

      .cls-11, .cls-12, .cls-13 {
        mix-blend-mode: soft-light;
      }

      .cls-14 {
        filter: url(#luminosity-noclip-5);
      }

      .cls-15 {
        fill: #fff;
      }

      .cls-16 {
        mask: url(#mask);
      }

      .cls-17 {
        fill: #63e5e2;
        opacity: .1;
      }

      .cls-18 {
        fill: url(#linear-gradient-4);
      }

      .cls-19 {
        fill: #4cd3dc;
      }

      .cls-12 {
        fill: url(#linear-gradient-16);
      }

      .cls-20 {
        fill: url(#linear-gradient-12);
      }

      .cls-20, .cls-21, .cls-22, .cls-23 {
        mix-blend-mode: multiply;
      }

      .cls-24 {
        mask: url(#mask-2);
      }

      .cls-25 {
        filter: url(#luminosity-noclip-3);
      }

      .cls-26 {
        fill: url(#linear-gradient-5);
      }

      .cls-27 {
        fill: #66e7e2;
      }

      .cls-27, .cls-22, .cls-6 {
        opacity: .3;
      }

      .cls-28 {
        isolation: isolate;
      }

      .cls-29 {
        fill: url(#linear-gradient-8);
      }

      .cls-4 {
        opacity: .2;
      }

      .cls-21 {
        fill: url(#linear-gradient-10);
      }

      .cls-5 {
        opacity: .5;
      }

      .cls-30 {
        fill: url(#linear-gradient-7);
      }

      .cls-31 {
        fill: url(#linear-gradient-9);
      }

      .cls-32 {
        fill: url(#linear-gradient-11);
      }

      .cls-33 {
        fill: url(#linear-gradient-6);
      }

      .cls-22 {
        fill: #dfe2f5;
      }

      .cls-34 {
        mask: url(#mask-4);
      }

      .cls-13 {
        fill: url(#linear-gradient-17);
      }

      .cls-35 {
        fill: url(#linear-gradient);
      }

      .cls-23 {
        fill: url(#linear-gradient-14);
      }

      .cls-36 {
        mask: url(#mask-3);
      }

      .cls-37 {
        filter: url(#luminosity-noclip);
      }
    </style>
    <linearGradient id="linear-gradient" x1="2370.86" y1="958.4" x2="2370.86" y2="1065.53" gradientTransform="translate(2841.81) rotate(-180) scale(1 -1)" gradientUnits="userSpaceOnUse">
      <stop offset="0" stop-color="#427ce8"/>
      <stop offset=".52" stop-color="#2b64c7"/>
      <stop offset="1" stop-color="#1951ad"/>
    </linearGradient>
    <linearGradient id="linear-gradient-2" x1="2419.22" y1="980.79" x2="2419.22" y2="1085.04" xlink:href="#linear-gradient"/>
    <linearGradient id="linear-gradient-3" x1="-7661.6" y1="575.66" x2="-7661.6" y2="678.68" gradientTransform="translate(8682.34)" xlink:href="#linear-gradient"/>
    <linearGradient id="linear-gradient-4" x1="2380.1" y1="934.76" x2="2380.1" y2="420.12" xlink:href="#linear-gradient"/>
    <linearGradient id="linear-gradient-5" x1="2012.31" y1="741.05" x2="2748.19" y2="741.05" gradientTransform="translate(2841.81) rotate(-180) scale(1 -1)" gradientUnits="userSpaceOnUse">
      <stop offset="0" stop-color="#427ce8"/>
      <stop offset=".3" stop-color="#3f79e4"/>
      <stop offset=".54" stop-color="#3972db"/>
      <stop offset=".76" stop-color="#2d66ca"/>
      <stop offset=".95" stop-color="#1d55b3"/>
      <stop offset="1" stop-color="#1951ad"/>
    </linearGradient>
    <linearGradient id="linear-gradient-6" x1="2602.04" y1="638.07" x2="2651.7" y2="638.07" xlink:href="#linear-gradient"/>
    <linearGradient id="linear-gradient-7" x1="2418.11" y1="135.28" x2="2546.59" y2="135.28" gradientTransform="translate(2841.81) rotate(-180) scale(1 -1)" gradientUnits="userSpaceOnUse">
      <stop offset="0" stop-color="#70efe5"/>
      <stop offset=".56" stop-color="#49d0da"/>
      <stop offset="1" stop-color="#2fbcd4"/>
    </linearGradient>
    <linearGradient id="linear-gradient-8" x1="2651.29" y1="366.79" x2="2643.43" y2="536.33" xlink:href="#linear-gradient-7"/>
    <linearGradient id="linear-gradient-9" x1="2129.76" y1="146.7" x2="2175.39" y2="353.98" xlink:href="#linear-gradient-7"/>
    <filter id="luminosity-noclip" x="799.55" y="724.23" width="301.67" height="174.17" color-interpolation-filters="sRGB" filterUnits="userSpaceOnUse">
      <feFlood flood-color="#fff" result="bg"/>
      <feBlend in="SourceGraphic" in2="bg"/>
    </filter>
    <filter id="luminosity-noclip-2" x="799.55" y="-8732" width="301.67" height="32766" color-interpolation-filters="sRGB" filterUnits="userSpaceOnUse">
      <feFlood flood-color="#fff" result="bg"/>
      <feBlend in="SourceGraphic" in2="bg"/>
    </filter>
    <mask id="mask-1" x="799.55" y="-8732" width="301.67" height="32766" maskUnits="userSpaceOnUse"/>
    <linearGradient id="linear-gradient-10" x1="1740.59" y1="811.31" x2="2042.26" y2="811.31" gradientTransform="translate(2841.81) rotate(-180) scale(1 -1)" gradientUnits="userSpaceOnUse">
      <stop offset=".24" stop-color="#000"/>
      <stop offset=".31" stop-color="#060606"/>
      <stop offset=".4" stop-color="#171717"/>
      <stop offset=".52" stop-color="#343434"/>
      <stop offset=".64" stop-color="#5d5d5d"/>
      <stop offset=".77" stop-color="#919191"/>
      <stop offset=".9" stop-color="#cfcfcf"/>
      <stop offset="1" stop-color="#fff"/>
    </linearGradient>
    <mask id="mask" x="799.55" y="724.23" width="301.67" height="174.17" maskUnits="userSpaceOnUse">
      <g class="cls-37">
        <g class="cls-10">
          <path class="cls-21" d="M799.55,762.26l8.09-33.36,57.78-4.67,13.45,7.76-57.78,4.67-8.09,33.36-13.45-7.76ZM840.8,786.07l8.09-33.36,57.78-4.67-13.45-7.76-57.78,4.67-8.09,33.36,13.45,7.76ZM868.59,802.12l8.09-33.36,57.78-4.67-13.45-7.76-57.78,4.67-8.09,33.36,13.45,7.76ZM896.39,818.16l8.09-33.36,57.78-4.67-13.45-7.76-57.78,4.67-8.09,33.36,13.45,7.76ZM924.18,834.21l8.09-33.36,57.78-4.67-13.45-7.76-57.78,4.67-8.09,33.36,13.45,7.76ZM951.97,850.26l8.09-33.36,57.78-4.67-13.45-7.76-57.78,4.67-8.09,33.36,13.45,7.76ZM979.77,866.3l8.09-33.36,57.78-4.67-13.45-7.76-57.78,4.67-8.09,33.36,13.45,7.76ZM1007.56,882.35l8.09-33.36,57.78-4.67-13.45-7.76-57.78,4.67-8.09,33.36,13.45,7.76ZM1035.36,898.4l8.09-33.36,57.78-4.67-13.45-7.76-57.78,4.67-8.09,33.36,13.45,7.76Z"/>
        </g>
      </g>
    </mask>
    <linearGradient id="linear-gradient-11" x1="1740.59" y1="811.31" x2="2042.26" y2="811.31" gradientTransform="translate(2841.81) rotate(-180) scale(1 -1)" gradientUnits="userSpaceOnUse">
      <stop offset=".24" stop-color="#a8e3ed"/>
      <stop offset="1" stop-color="#a8e3ed"/>
    </linearGradient>
    <filter id="luminosity-noclip-3" x="667.03" y="801.04" width="301.67" height="174.17" color-interpolation-filters="sRGB" filterUnits="userSpaceOnUse">
      <feFlood flood-color="#fff" result="bg"/>
      <feBlend in="SourceGraphic" in2="bg"/>
    </filter>
    <filter id="luminosity-noclip-4" x="667.03" y="-8732" width="301.67" height="32766" color-interpolation-filters="sRGB" filterUnits="userSpaceOnUse">
      <feFlood flood-color="#fff" result="bg"/>
      <feBlend in="SourceGraphic" in2="bg"/>
    </filter>
    <mask id="mask-3" x="667.03" y="-8732" width="301.67" height="32766" maskUnits="userSpaceOnUse"/>
    <linearGradient id="linear-gradient-12" x1="1873.11" y1="888.12" x2="2174.78" y2="888.12" gradientTransform="translate(2841.81) rotate(-180) scale(1 -1)" gradientUnits="userSpaceOnUse">
      <stop offset=".24" stop-color="#000"/>
      <stop offset=".31" stop-color="#060606"/>
      <stop offset=".4" stop-color="#171717"/>
      <stop offset=".52" stop-color="#343434"/>
      <stop offset=".64" stop-color="#5d5d5d"/>
      <stop offset=".77" stop-color="#919191"/>
      <stop offset=".9" stop-color="#cfcfcf"/>
      <stop offset="1" stop-color="#fff"/>
    </linearGradient>
    <mask id="mask-2" x="667.03" y="801.04" width="301.67" height="174.17" maskUnits="userSpaceOnUse">
      <g class="cls-25">
        <g class="cls-36">
          <path class="cls-20" d="M667.03,839.06l8.09-33.36,57.78-4.67,13.45,7.76-57.78,4.67-8.09,33.36-13.45-7.76ZM708.27,862.88l8.09-33.36,57.78-4.67-13.45-7.76-57.78,4.67-8.09,33.36,13.45,7.76ZM736.07,878.92l8.09-33.36,57.78-4.67-13.45-7.76-57.78,4.67-8.09,33.36,13.45,7.76ZM763.86,894.97l8.09-33.36,57.78-4.67-13.45-7.76-57.78,4.67-8.09,33.36,13.45,7.76ZM791.65,911.02l8.09-33.36,57.78-4.67-13.45-7.76-57.78,4.67-8.09,33.36,13.45,7.76ZM819.45,927.06l8.09-33.36,57.78-4.67-13.45-7.76-57.78,4.67-8.09,33.36,13.45,7.76ZM847.24,943.11l8.09-33.36,57.78-4.67-13.45-7.76-57.78,4.67-8.09,33.36,13.45,7.76ZM875.04,959.16l8.09-33.36,57.78-4.67-13.45-7.76-57.78,4.67-8.09,33.36,13.45,7.76ZM902.83,975.21l8.09-33.36,57.78-4.67-13.45-7.76-57.78,4.67-8.09,33.36,13.45,7.76Z"/>
        </g>
      </g>
    </mask>
    <linearGradient id="linear-gradient-13" x1="1873.11" y1="888.12" x2="2174.78" y2="888.12" xlink:href="#linear-gradient-11"/>
    <filter id="luminosity-noclip-5" x="534.5" y="877.84" width="301.67" height="174.17" color-interpolation-filters="sRGB" filterUnits="userSpaceOnUse">
      <feFlood flood-color="#fff" result="bg"/>
      <feBlend in="SourceGraphic" in2="bg"/>
    </filter>
    <filter id="luminosity-noclip-6" x="534.5" y="-8732" width="301.67" height="32766" color-interpolation-filters="sRGB" filterUnits="userSpaceOnUse">
      <feFlood flood-color="#fff" result="bg"/>
      <feBlend in="SourceGraphic" in2="bg"/>
    </filter>
    <mask id="mask-5" x="534.5" y="-8732" width="301.67" height="32766" maskUnits="userSpaceOnUse"/>
    <linearGradient id="linear-gradient-14" x1="2005.64" y1="964.93" x2="2307.31" y2="964.93" gradientTransform="translate(2841.81) rotate(-180) scale(1 -1)" gradientUnits="userSpaceOnUse">
      <stop offset=".24" stop-color="#000"/>
      <stop offset=".31" stop-color="#060606"/>
      <stop offset=".4" stop-color="#171717"/>
      <stop offset=".52" stop-color="#343434"/>
      <stop offset=".64" stop-color="#5d5d5d"/>
      <stop offset=".77" stop-color="#919191"/>
      <stop offset=".9" stop-color="#cfcfcf"/>
      <stop offset="1" stop-color="#fff"/>
    </linearGradient>
    <mask id="mask-4" x="534.5" y="877.84" width="301.67" height="174.17" maskUnits="userSpaceOnUse">
      <g class="cls-14">
        <g class="cls-7">
          <path class="cls-23" d="M534.5,915.87l8.09-33.36,57.78-4.67,13.45,7.76-57.78,4.67-8.09,33.36-13.45-7.76ZM575.75,939.68l8.09-33.36,57.78-4.67-13.45-7.76-57.78,4.67-8.09,33.36,13.45,7.76ZM603.54,955.73l8.09-33.36,57.78-4.67-13.45-7.76-57.78,4.67-8.09,33.36,13.45,7.76ZM631.33,971.78l8.09-33.36,57.78-4.67-13.45-7.76-57.78,4.67-8.09,33.36,13.45,7.76ZM659.13,987.82l8.09-33.36,57.78-4.67-13.45-7.76-57.78,4.67-8.09,33.36,13.45,7.76ZM686.92,1003.87l8.09-33.36,57.78-4.67-13.45-7.76-57.78,4.67-8.09,33.36,13.45,7.76ZM714.72,1019.92l8.09-33.36,57.78-4.67-13.45-7.76-57.78,4.67-8.09,33.36,13.45,7.76ZM742.51,1035.96l8.09-33.36,57.78-4.67-13.45-7.76-57.78,4.67-8.09,33.36,13.45,7.76ZM770.31,1052.01l8.09-33.36,57.78-4.67-13.45-7.76-57.78,4.67-8.09,33.36,13.45,7.76Z"/>
        </g>
      </g>
    </mask>
    <linearGradient id="linear-gradient-15" x1="2005.64" y1="964.93" x2="2307.31" y2="964.93" xlink:href="#linear-gradient-11"/>
    <linearGradient id="linear-gradient-16" x1="2085.9" y1="320.17" x2="2154.16" y2="167.71" gradientTransform="translate(2841.81) rotate(-180) scale(1 -1)" gradientUnits="userSpaceOnUse">
      <stop offset="0" stop-color="#fff"/>
      <stop offset="1" stop-color="#8f8f8f"/>
    </linearGradient>
    <linearGradient id="linear-gradient-17" x1="2322.09" y1="189.97" x2="2474.56" y2="78.1" xlink:href="#linear-gradient-16"/>
    <linearGradient id="linear-gradient-18" x1="2486.96" y1="509.36" x2="2639.43" y2="397.49" xlink:href="#linear-gradient-16"/>
  </defs>
  <g class="cls-28">
    <g id="Layer_1" data-name="Layer 1">
      <path class="cls-22" d="M405.82,1092.3c9.26,5.35,24.29,5.35,33.55,0,9.26-5.35,9.26-14.02,0-19.37-9.26-5.35-24.29-5.35-33.55,0-9.26,5.35-9.26,14.02,0,19.37Z"/>
      <path class="cls-22" d="M454.18,1070.71c9.26,5.35,24.29,5.35,33.55,0,9.26-5.35,9.26-14.02,0-19.37-9.26-5.35-24.29-5.35-33.55,0-9.26,5.35-9.26,14.02,0,19.37Z"/>
      <path class="cls-35" d="M451.48,989.34c.05.88.83,1.58,1.68,1.8.85.22,1.75.06,2.6-.16.85-.22,1.69-.51,2.57-.53.98-.03,1.93.27,2.87.55,1.65.49,3.31.94,4.98,1.35-.01,3.33-.29,6.65-.9,9.92-.24,1.26-.58,2.5-.8,3.76-.09.48-.05.96-.14,1.45-.12.66-.24,1.33-.36,1.99-.44,2.57-.81,5.17-.9,7.78-.07,2.11.05,4.23.46,6.3.2,1.04.48,2.07.84,3.07.23.65.44,1.32.79,1.91.06,5.2.41,10.4,1.07,15.55.18,1.43.36,2.86.51,4.3.1.96.12,1.95-.16,2.87-.41,1.32-1.4,2.38-2.39,3.35-.62.61-1.26,1.21-1.79,1.89-.26.34-.5.7-.7,1.08-.17.34-.45.77-.19,1.14.22.3.66.31,1.03.28,1.27-.09,2.54-.19,3.75-.58,1.21-.39,2.36-1.1,3.02-2.18.58-.95.74-2.09.89-3.19.35-2.6.69-5.2.98-7.81.5-4.61.81-9.26.56-13.9-.01-.25-.05-.5-.06-.76.98,0,1.95-.02,2.93-.08.1,7.68.61,15.35,1.56,22.96.27,2.13.52,4.47-.63,6.29-.89,1.4-2.52,2.3-3.09,3.86-.24.66-.16,1.58.49,1.85.37.16.79.05,1.17-.06,1.14-.32,2.29-.65,3.31-1.25,1.02-.6,1.91-1.52,2.22-2.66.29-1.07.06-2.2-.1-3.3-.81-5.73.65-11.5,1.62-17.2.29-1.68.52-3.37.65-5.08.17-2.23.15-4.5-.22-6.71.58-.29,1.11-.64,1.53-1.14,1.02-1.25,1.16-2.99,1.16-4.61,0-1.31-.06-2.61-.17-3.91-.18-2.03-.5-4.05-.96-6.04-.59-2.55-1.4-5.05-2.42-7.45-.26-.6-.57-1.18-.81-1.79-.19-.46-.24-.99-.39-1.48-.31-1.01-.54-2.05-.69-3.1.44-.16.88-.34,1.29-.57,1.19-.67,2.21-1.58,3.23-2.49,1.79-1.59,3.57-3.19,5.36-4.78.8-.71,1.65-1.53,1.74-2.6.09-1.08-.65-2.03-1.34-2.87-2.7-3.25-5.42-6.5-8.45-9.45-.2-1.97.03-4,.22-5.99.24-2.61.35-5.35-.74-7.74-1.4-3.05-4.82-5.04-8.16-4.75-1.19.1-2.36.48-3.33,1.17-.96.7-1.7,1.74-1.93,2.9-.49,2.47,1.28,4.96.84,7.43-.22,1.24-.98,2.33-1.24,3.57-.2.92-.1,1.85.15,2.76-.66,1.1-1,2.4-1.08,3.68-.12,1.83.2,3.66.43,5.48.14,1.13.22,2.26.29,3.4-1.81-.46-3.63-.88-5.45-1.3-.55-.13-1.1-.25-1.65-.38-1.01-.23-2.3-.65-3.33-.41-.4.09-.72.2-1.14.24-.56.04-1.12.14-1.64.37-.78.36-1.45,1.13-1.4,2ZM478.69,996.28c.12-2.01.52-4.01.9-5.99.22-1.12.41-2.25.56-3.38.08-.07.17-.13.25-.2.45-.43.8-.95,1.08-1.5.94.74,1.85,1.52,2.7,2.36.36.36.73.77.79,1.27.06.54-.26,1.05-.56,1.5-1.56,2.32-3.61,4.12-5.72,5.93Z"/>
      <path class="cls-8" d="M405.93,1021.08c.07.88,1,1.63,1.63,2.13,1.51,1.2,3.04,2.38,4.56,3.56-2.94,6.84-.81,15.33.83,22.69.03.15.08.31.11.47-.38,4.42-.24,8.89.46,13.28.81,5.02,2.32,10.05,1.71,15.1.44.61,1.12.9,1.83,1.16,1.69.63,3.45,1.23,5.24,1.27.09.39.22.77.43,1.11.42.66,1.12.87,1.82,1.16,1.03.42,2.04.89,3.06,1.34.56.25,1.13.49,1.73.61.58.11,1.17.09,1.76.07.31-.01.65-.03.87-.25.2-.19.24-.5.18-.77-.06-.27-.22-.5-.39-.72-.7-.9-1.6-1.6-2.44-2.37-.84-.77-1.64-1.63-2.01-2.71-.31-.88-.3-1.83-.2-2.74.08-.76-.02-1.48.03-2.24.15-1.98.29-3.96.42-5.93.34-4.95.63-9.89.9-14.84.44-.2.85-.44,1.19-.8.92-.96,1.14-2.36,1.29-3.68,1.13-10.09-2.58-20.29-3.9-30.44,1.38,1.74,2.76,3.47,4.3,5.07-.17,1.4.2,2.85,1.02,4,.82,1.14,2.08,1.96,3.46,2.24,1.11.23,2.44.03,3.07-.91.47-.7.44-1.66.07-2.42-.36-.76-1-1.36-1.68-1.86s-1.42-.92-2.08-1.44c-1.02-.82-1.83-1.86-2.59-2.93-1.83-2.57-4.84-5.09-4.83-8.24,0-1.63.01-3.27.02-4.9,0-1.04,0-2.09-.18-3.12-.19-1.02-.6-2.03-1.31-2.79-.37-.39-.82-.71-1.33-.86-.04-.01-.08,0-.11,0-.25-.36-.53-.71-.82-1.03-.72-.79-1.59-1.49-2.62-1.77-.18-.05-.37-.07-.55-.1.18-.29.38-.57.6-.82.8-.9,1.83-1.55,2.68-2.41.67-.67,1.21-1.46,1.6-2.32.24-.52.36-1.04.47-1.57.06-.3.12-.6.19-.91.4-1.78.14-3.74-.9-5.26-1.21-1.77-3.52-2.78-5.6-2.25-1.23.32-2.3,1.13-3.06,2.16-1.23,1.67-1.63,3.8-1.81,5.87-.18,2.07-.19,4.17-.77,6.16-1.14,3.91-4.34,6.88-6.04,10.59-1,2.19-1.46,4.68-1.01,7.05.1.5.24.99.42,1.47-.37,1.13-.71,2.28-1.01,3.44-.15.57-.28,1.15-.41,1.73-.11.51-.36,1.16-.32,1.68ZM417.94,1070.1c-.03-5.46.21-10.92.51-16.37.06,0,.12,0,.18,0,1.3,0,2.6-.07,3.89-.18-.57,3.73-.96,7.49-.68,11.25.29,4.01,1.31,8.02.73,11.99-.06.43-.14.86-.22,1.29-.72-.42-1.45-.79-2.13-1.28-.98-.7-1.6-1.79-1.92-2.94-.34-1.22-.36-2.5-.37-3.76ZM410.71,1018.19c.17.11.34.23.52.33,1.01.56,2.17.83,3.32.82-.17,1.5-.5,2.97-1.02,4.37-.48-.44-.97-.86-1.48-1.26-.63-.5-1.31-1.01-1.6-1.76-.3-.8-.07-1.69.26-2.49Z"/>
      <path class="cls-22" d="M1040.26,685.91c-9.61,5.55-25.18,5.55-34.78,0-9.61-5.55-9.61-14.54,0-20.08,9.61-5.55,25.18-5.55,34.78,0,9.61,5.55,9.61,14.54,0,20.08Z"/>
      <path class="cls-9" d="M1041.28,624.14c-.41-1.08-1.16-1.97-1.42-3.1-.3-1.28-.61-2.56-.93-3.83-.64-2.55-1.32-5.09-2.05-7.61-.25-.87-.51-1.74-.77-2.6.75-1.95,1.05-4.11.75-6.2-.44-3.05-2.06-5.88-4.41-7.68-1.14-.88-2.49-1.57-3.24-2.85-.83-1.43-.71-3.25-.43-4.9.28-1.65.68-3.35.33-4.98-.58-2.68-3.3-4.52-5.87-4.24-2.57.28-4.79,2.45-5.55,5.08-.77,2.63-.32,6.08,1.63,7.99.24.23.4.55.6.82-.34.28-.67.57-.97.91-.38.16-.76.41-1.05.6-.6.4-1.14.9-1.62,1.44-.55.63-1.03,1.33-1.43,2.07-1.03,1.9-1.6,4.01-2.28,6.06-1.13,3.43-2.57,6.77-4.3,9.94-1.45,2.67-3.18,5.3-5.68,7.02-.67.46-1.39.85-1.95,1.42-.57.57-.98,1.38-.83,2.17s1.04,1.44,1.79,1.13c.91-.37,1.02-1.74,1.89-2.2.57-.3,1.29-.12,1.87-.4.76-.37.96-1.33,1.2-2.14.99-3.28,3.98-5.45,6.44-7.83.95-.92,1.82-1.91,2.64-2.95.09,1.63.18,3.26.12,4.89-.16,4.87-1.5,9.62-2.48,14.39-.98,4.78-1.6,9.78-.34,14.49.42,1.55,1.08,3.12,2.33,4.14.71.58,1.54.91,2.42,1.14.58.84,1.22,1.65,1.88,2.44l.44,3.19c.26,1.84.51,3.68.77,5.52.46,3.29.92,6.62.67,9.93-.11,1.49-.38,2.98-.84,4.41-.46,1.42-1.11,2.78-2,3.99-.27.37-.54.73-.87,1.04-.38.35-.73.75-1.02,1.18-.14.21-.28.44-.31.7-.03.25.06.54.29.67.15.08.32.08.49.08,1.65-.06,3.25-.85,4.3-2.12.27-.32.65-.5,1.04-.66.18-.07.4-.13.57-.04.16.09.23.28.28.46.05.18.1.37.25.48.06.05.15.05.22.06,0,0,0,0,0,.01.04.03.09.01.14.02.01,0,.02,0,.03,0,0,0,0,0,.01,0,.09.01.16,0,.25-.03.06,0,.12,0,.18-.02.19-.08.31-.27.39-.46.23-.61.08-1.29.1-1.95.35-2.55.69-5.09,1.04-7.64.49-3.58.95-7.18.82-10.79,1.61,1.65,3.22,3.31,4.35,5.3,1.28,2.23,1.9,4.99,1,7.41-.13.36-.06.69.21.97.26.28.66.4,1.04.4.95.02,1.82-.62,2.28-1.45.47-.82.59-1.8.58-2.74,0-.95-.13-1.89-.11-2.83,0-.09.01-.2.09-.25.08-.05.19-.01.26.05.07.06.12.15.2.2.18.14.45.1.64-.03.18-.13.3-.34.41-.54.11-.2.23-.41.41-.55-.21-.81-1.02-1.29-1.72-1.75-1.57-1.03-2.97-2.33-4.1-3.83-1.88-2.5-3.07-5.58-5.51-7.55-.3-.24-.66-.4-1.02-.55-.15-.86-.3-1.71-.44-2.57.41-.14.81-.32,1.18-.57,1.3-.9,1.99-2.42,2.53-3.9,2.38-6.48,3.08-13.56,2.01-20.38-.45-2.87-1.21-5.74-1.89-8.6.75-.03,1.49-.2,2.18-.51.87-.38,1.63-.97,2.31-1.66.9,2.39,1.75,4.79,2.51,7.22.62,1.99,1.19,4.04,1.08,6.12-.05.96-.25,1.93-.13,2.89.12.96.67,1.95,1.6,2.22,1.08.31,2.22-.51,2.66-1.54.48-1.14.31-2.46-.13-3.61Z"/>
      <path class="cls-18" d="M82.93,895.97c3.48,2.01,7.03,3.93,10.69,5.79,42.69,21.81,97.01,33.71,154.51,33.71,62.41,0,121.07-14.02,165.19-39.5l416.18-240.27,11.2-6.47c91.09-52.59,91.09-138.16,0-190.75-44.12-25.47-102.8-39.51-165.19-39.51-22.23,0-44.4,1.86-65.67,5.44-57.41-16.08-122.15-22.85-186.23-19.18-79.51,4.54-154.44,25.04-211.01,57.7-38.33,22.13-67.48,49.45-84.31,79.03-11.18,19.65-17.01,40.39-17.3,61.13-2.65,1.4-5.25,2.83-7.79,4.29-35.29,20.38-57.55,46.21-64.36,74.7-4.17,17.43-2.11,35.28,5.75,52.2-50.68,51.64-37.37,117.99,38.33,161.69Z"/>
      <path class="cls-26" d="M93.62,798.5v103.27c42.69,21.81,97.01,33.71,154.51,33.71,62.41,0,121.07-14.02,165.19-39.5l416.18-240.27v-109.08s-663.03,226.94-663.03,226.94v-75.71s-50.61,0-50.61,0v80.55s36.44,0,36.44,0l-58.69,20.09Z"/>
      <rect class="cls-33" x="190.11" y="601.43" width="49.66" height="73.28"/>
      <path class="cls-15" d="M133.59,740.73c-30.36-32.38-21.85-73.69,25.56-101.06,10.12-5.84,21.34-10.66,33.28-14.45-10.67-46.14,14.7-94.53,76.12-129.99,91.09-52.59,231.46-59.4,335.31-20.42,22.38-6.78,47.01-10.16,71.66-10.16,39.54,0,79.08,8.71,109.25,26.13,60.33,34.83,60.34,91.32,0,126.16l-427.39,246.75c-30.17,17.42-69.71,26.12-109.25,26.12-39.54,0-79.09-8.7-109.25-26.12-58.53-33.79-60.28-87.94-5.28-122.95Z"/>
      <path class="cls-5" d="M457.72,557.91l54.38-31.4c6.17-3.56,5.4-9.79-1.73-13.91l-50.92-29.4c-7.13-4.12-17.92-4.56-24.09-1l-54.38,31.4c-6.17,3.56-5.4,9.79,1.73,13.91l50.92,29.4c7.13,4.12,17.92,4.56,24.09,1Z"/>
      <path class="cls-6" d="M575.84,542.21l27.36-15.8c3.11-1.79,2.72-4.93-.87-7l-25.62-14.79c-3.59-2.07-9.01-2.3-12.12-.5l-27.36,15.8c-3.11,1.79-2.72,4.93.87,7l25.62,14.79c3.59,2.07,9.01,2.3,12.12.5Z"/>
      <path class="cls-6" d="M467.54,610.83l44.23-25.53c5.02-2.9,4.39-7.96-1.41-11.31l-41.41-23.91c-5.8-3.35-14.57-3.71-19.59-.81l-44.23,25.53c-5.02,2.9-4.39,7.96,1.41,11.31l41.41,23.91c5.8,3.35,14.57,3.71,19.59.81Z"/>
      <path class="cls-3" d="M515.8,743.68l44.23-25.53c5.02-2.9,4.39-7.96-1.41-11.31l-41.41-23.91c-5.8-3.35-14.57-3.71-19.59-.81l-44.23,25.53c-5.02,2.9-4.39,7.96,1.41,11.31l41.41,23.91c5.8,3.35,14.57,3.71,19.59.81Z"/>
      <path class="cls-3" d="M231.35,703.62l20.57-11.88c2.34-1.35,2.04-3.7-.65-5.26l-19.26-11.12c-2.7-1.56-6.78-1.73-9.11-.38l-20.57,11.88c-2.34,1.35-2.04,3.7.65,5.26l19.26,11.12c2.7,1.56,6.78,1.73,9.11.38Z"/>
      <path class="cls-3" d="M605.07,611.13l31.04-17.92c3.52-2.03,3.08-5.59-.99-7.94l-29.06-16.78c-4.07-2.35-10.22-2.6-13.75-.57l-31.04,17.92c-3.52,2.03-3.08,5.59.99,7.94l29.06,16.78c4.07,2.35,10.22,2.6,13.75.57Z"/>
      <path class="cls-3" d="M255.03,858.73l31.04-17.92c3.52-2.03,3.08-5.59-.99-7.94l-29.06-16.78c-4.07-2.35-10.22-2.6-13.75-.57l-31.04,17.92c-3.52,2.03-3.08,5.59.99,7.94l29.06,16.78c4.07,2.35,10.22,2.6,13.75.57Z"/>
      <path class="cls-6" d="M650.26,664.38l38.4-22.17c4.36-2.52,3.81-6.91-1.22-9.82l-35.95-20.76c-5.03-2.91-12.65-3.22-17.01-.71l-38.4,22.17c-4.36,2.52-3.81,6.91,1.22,9.82l35.95,20.76c5.03,2.91,12.65,3.22,17.01.71Z"/>
      <path class="cls-6" d="M239.45,682.78l38.4-22.17c4.36-2.52,3.81-6.91-1.22-9.82l-35.95-20.76c-5.03-2.91-12.65-3.22-17.01-.71l-38.4,22.17c-4.36,2.52-3.81,6.91,1.22,9.82l35.95,20.76c5.03,2.91,12.65,3.22,17.01.71Z"/>
      <path class="cls-3" d="M360.52,680.87l38.4-22.17c4.36-2.52,3.81-6.91-1.22-9.82l-35.95-20.76c-5.03-2.91-12.65-3.22-17.01-.71l-38.4,22.17c-4.36,2.52-3.81,6.91,1.22,9.82l35.95,20.76c5.03,2.91,12.65,3.22,17.01.71Z"/>
      <path class="cls-4" d="M468.21,741.45l16.93-9.78c1.92-1.11,1.68-3.05-.54-4.33l-15.86-9.16c-2.22-1.28-5.58-1.42-7.5-.31l-16.93,9.78c-1.92,1.11-1.68,3.05.54,4.33l15.86,9.16c2.22,1.28,5.58,1.42,7.5.31Z"/>
      <path class="cls-6" d="M678.49,541.39l31.04-17.92c3.52-2.03,3.08-5.59-.99-7.94l-29.06-16.78c-4.07-2.35-10.22-2.6-13.75-.57l-31.04,17.92c-3.52,2.03-3.08,5.59.99,7.94l29.06,16.78c4.07,2.35,10.22,2.6,13.75.57Z"/>
      <path class="cls-6" d="M693.71,603.4l13.55-7.82c1.54-.89,1.35-2.44-.43-3.47l-12.69-7.33c-1.78-1.03-4.46-1.14-6-.25l-13.55,7.82c-1.54.89-1.35,2.44.43,3.47l12.69,7.33c1.78,1.03,4.46,1.14,6,.25Z"/>
      <path class="cls-6" d="M506.09,601.95l13.55-7.82c1.54-.89,1.35-2.44-.43-3.47l-12.69-7.33c-1.78-1.03-4.46-1.14-6-.25l-13.55,7.82c-1.54.89-1.35,2.44.43,3.47l12.69,7.33c1.78,1.03,4.46,1.14,6,.25Z"/>
      <path class="cls-4" d="M556.52,567.78l13.55-7.82c1.54-.89,1.35-2.44-.43-3.47l-12.69-7.33c-1.78-1.03-4.46-1.14-6-.25l-13.55,7.82c-1.54.89-1.35,2.44.43,3.47l12.69,7.33c1.78,1.03,4.46,1.14,6,.25Z"/>
      <path class="cls-4" d="M336.07,852.46l13.55-7.82c1.54-.89,1.35-2.44-.43-3.47l-12.69-7.33c-1.78-1.03-4.46-1.14-6-.25l-13.55,7.82c-1.54.89-1.35,2.44.43,3.47l12.69,7.33c1.78,1.03,4.46,1.14,6,.25Z"/>
      <path class="cls-4" d="M364.81,735.69l22.42-12.95c2.55-1.47,2.23-4.04-.71-5.73l-21-12.12c-2.94-1.7-7.39-1.88-9.93-.41l-22.42,12.95c-2.55,1.47-2.23,4.04.71,5.73l21,12.12c2.94,1.7,7.39,1.88,9.93.41Z"/>
      <path class="cls-4" d="M253.26,826.28l22.42-12.95c2.55-1.47,2.23-4.04-.71-5.73l-21-12.12c-2.94-1.7-7.39-1.88-9.93-.41l-22.42,12.95c-2.55,1.47-2.23,4.04.71,5.73l21,12.12c2.94,1.7,7.39,1.88,9.93.41Z"/>
      <path class="cls-4" d="M337.65,779.22l28.38-16.39c3.22-1.86,2.82-5.11-.9-7.26l-26.57-15.34c-3.72-2.15-9.35-2.38-12.57-.52l-28.38,16.39c-3.22,1.86-2.82,5.11.9,7.26l26.57,15.34c3.72,2.15,9.35,2.38,12.57.52Z"/>
      <path class="cls-4" d="M533.42,653.03l25.07-14.47c2.85-1.64,2.49-4.51-.8-6.41l-23.47-13.55c-3.29-1.9-8.26-2.1-11.1-.46l-25.07,14.47c-2.85,1.64-2.49,4.51.8,6.41l23.47,13.55c3.29,1.9,8.26,2.1,11.1.46Z"/>
      <path class="cls-4" d="M411.53,669.46l25.07-14.47c2.85-1.64,2.49-4.51-.8-6.41l-23.47-13.55c-3.29-1.9-8.26-2.1-11.1-.46l-25.07,14.47c-2.85,1.64-2.49,4.51.8,6.41l23.47,13.55c3.29,1.9,8.26,2.1,11.1.46Z"/>
      <path class="cls-4" d="M518.64,698.76l41.74-24.1c4.74-2.74,4.15-7.52-1.33-10.68l-39.09-22.57c-5.47-3.16-13.75-3.5-18.49-.77l-41.74,24.1c-4.74,2.74-4.14,7.52,1.33,10.68l39.09,22.57c5.47,3.16,13.75,3.5,18.49.77Z"/>
      <path class="cls-4" d="M364.78,573.8l27.8-16.05c3.16-1.82,2.76-5.01-.88-7.11l-26.03-15.03c-3.65-2.1-9.16-2.33-12.32-.51l-27.8,16.05c-3.16,1.82-2.76,5.01.88,7.11l26.03,15.03c3.65,2.1,9.16,2.33,12.32.51Z"/>
      <path class="cls-4" d="M234.01,764.01l27.8-16.05c3.16-1.82,2.76-5.01-.88-7.11l-26.03-15.03c-3.65-2.1-9.16-2.33-12.32-.51l-27.8,16.05c-3.16,1.82-2.76,5.01.88,7.11l26.03,15.03c3.65,2.1,9.16,2.33,12.32.51Z"/>
      <path class="cls-4" d="M280.51,592.04l22.73-13.12c2.58-1.49,2.26-4.09-.72-5.81l-21.28-12.29c-2.98-1.72-7.49-1.91-10.07-.42l-22.73,13.12c-2.58,1.49-2.26,4.09.72,5.81l21.28,12.29c2.98,1.72,7.49,1.91,10.07.42Z"/>
      <path class="cls-4" d="M165.64,720.35l22.73-13.12c2.58-1.49,2.26-4.09-.72-5.81l-21.28-12.29c-2.98-1.72-7.49-1.91-10.07-.42l-22.73,13.12c-2.58,1.49-2.26,4.09.72,5.81l21.28,12.29c2.98,1.72,7.49,1.91,10.07.42Z"/>
      <path class="cls-3" d="M419.75,787.91l22.73-13.12c2.58-1.49,2.26-4.09-.72-5.81l-21.28-12.29c-2.98-1.72-7.49-1.91-10.07-.42l-22.73,13.12c-2.58,1.49-2.26,4.09.72,5.81l21.28,12.29c2.98,1.72,7.49,1.91,10.07.42Z"/>
      <path class="cls-4" d="M288.8,537.11l13.55-7.82c1.54-.89,1.35-2.44-.43-3.47l-12.69-7.33c-1.78-1.03-4.46-1.14-6-.25l-13.55,7.82c-1.54.89-1.35,2.44.43,3.47l12.69,7.33c1.78,1.03,4.46,1.14,6,.25Z"/>
      <path class="cls-4" d="M167.73,733.9l13.55-7.82c1.54-.89,1.35-2.44-.43-3.47l-12.69-7.33c-1.78-1.03-4.46-1.14-6-.25l-13.55,7.82c-1.54.89-1.35,2.44.43,3.47l12.69,7.33c1.78,1.03,4.46,1.14,6,.25Z"/>
      <path class="cls-3" d="M292.14,771.49l13.55-7.82c1.54-.89,1.35-2.44-.43-3.47l-12.69-7.33c-1.78-1.03-4.46-1.14-6-.25l-13.55,7.82c-1.54.89-1.35,2.44.43,3.47l12.69,7.33c1.78,1.03,4.46,1.14,6,.25Z"/>
      <path class="cls-4" d="M156.62,800.89l28.38-16.39c3.22-1.86,2.82-5.11-.9-7.26l-26.57-15.34c-3.72-2.15-9.35-2.38-12.57-.52l-28.38,16.39c-3.22,1.86-2.82,5.11.9,7.26l26.57,15.34c3.72,2.15,9.35,2.38,12.57.52Z"/>
      <path class="cls-3" d="M157.22,767.12l13.55-7.82c1.54-.89,1.35-2.44-.43-3.47l-12.69-7.33c-1.78-1.03-4.46-1.14-6-.25l-13.55,7.82c-1.54.89-1.35,2.44.43,3.47l12.69,7.33c1.78,1.03,4.46,1.14,6,.25Z"/>
      <path class="cls-6" d="M508.57,482.13l13.55-7.82c1.54-.89,1.35-2.44-.43-3.47l-12.69-7.33c-1.78-1.03-4.46-1.14-6-.25l-13.55,7.82c-1.54.89-1.35,2.44.43,3.47l12.69,7.33c1.78,1.03,4.46,1.14,6,.25Z"/>
      <path class="cls-6" d="M369.14,798.12l13.55-7.82c1.54-.89,1.35-2.44-.43-3.47l-12.69-7.33c-1.78-1.03-4.46-1.14-6-.25l-13.55,7.82c-1.54.89-1.35,2.44.43,3.47l12.69,7.33c1.78,1.03,4.46,1.14,6,.25Z"/>
      <path class="cls-3" d="M745.69,553.76l35.85-20.7c4.07-2.35,3.56-6.45-1.14-9.17l-33.57-19.38c-4.7-2.71-11.81-3.01-15.88-.66l-35.85,20.7c-4.07,2.35-3.56,6.45,1.14,9.17l33.56,19.38c4.7,2.71,11.81,3.01,15.88.66Z"/>
      <path class="cls-3" d="M754.87,592.46l12.25-7.07c1.39-.8,1.22-2.21-.39-3.13l-11.47-6.62c-1.61-.93-4.04-1.03-5.43-.22l-12.25,7.07c-1.39.8-1.22,2.21.39,3.13l11.47,6.62c1.61.93,4.04,1.03,5.43.22Z"/>
      <path class="cls-17" d="M257.76,57.63L360.41-1.63c9.06-5.23,16.4.32,16.4,12.4v112.66c0,12.08-7.34,26.1-16.4,31.33l-102.65,59.26c-9.06,5.23-16.4-.32-16.4-12.4v-112.66c0-12.08,7.34-26.1,16.4-31.33Z"/>
      <path class="cls-27" d="M282.95,72.17l102.65-59.26c9.06-5.23,16.4.32,16.4,12.4v112.66c0,12.08-7.34,26.1-16.4,31.33l-102.65,59.26c-9.06,5.23-16.4-.32-16.4-12.4v-112.66c0-12.08,7.34-26.1,16.4-31.33Z"/>
      <path class="cls-30" d="M301.63,241.59c1.42,0,3.07-.52,4.76-1.5l9.09-5.26,93.57-54c7.94-4.59,14.65-17.56,14.66-28.33V39.85c0-5.02-1.69-10.88-6.41-10.88-1.42,0-3.07.52-4.77,1.5l-21.61,12.48-81.04,46.78c-7.95,4.59-14.66,17.56-14.66,28.3v112.67c0,5.02,1.68,10.88,6.41,10.88Z"/>
      <path class="cls-15" d="M417.29,32.45c1.67,0,2.92,3.18,2.92,7.4v112.66c0,9.51-6.03,21.34-12.91,25.31l-13.35,7.71-80.21,46.29-9.1,5.26c-1.55.89-2.56,1.03-3.02,1.03-1.67,0-2.93-3.18-2.93-7.4v-112.67c0-9.5,6.03-21.31,12.92-25.29l3.45-1.99,77.58-44.79,21.61-12.48c1.56-.9,2.57-1.04,3.03-1.04h0ZM417.29,25.48c-2,0-4.2.63-6.51,1.97l-21.61,12.48-77.58,44.79-3.46,1.99c-9.06,5.23-16.41,19.25-16.4,31.32v112.67c0,8.99,4.07,14.37,9.89,14.37,1.99,0,4.19-.63,6.51-1.96l9.09-5.26,80.21-46.29,13.35-7.71c9.06-5.23,16.39-19.26,16.4-31.34V39.84c0-8.99-4.08-14.36-9.9-14.36h0Z"/>
      <path class="cls-17" d="M92.9,377.02l102.65-59.26c9.06-5.23,16.4.32,16.4,12.4v112.66c0,12.08-7.34,26.1-16.4,31.33l-102.65,59.26c-9.06,5.23-16.4-.32-16.4-12.4v-112.66c0-12.08,7.34-26.1,16.4-31.33Z"/>
      <path class="cls-27" d="M118.09,391.56l102.65-59.26c9.06-5.23,16.4.32,16.4,12.4v112.66c0,12.08-7.34,26.1-16.4,31.33l-102.65,59.26c-9.06,5.23-16.4-.32-16.4-12.4v-112.66c0-12.08,7.34-26.1,16.4-31.33Z"/>
      <path class="cls-29" d="M136.76,560.98c1.42,0,3.07-.52,4.77-1.5l9.09-5.25,93.56-54.01c7.94-4.59,14.65-17.56,14.66-28.32v-112.66c0-5.02-1.68-10.88-6.41-10.88-1.42,0-3.07.52-4.77,1.5l-21.6,12.48-81.04,46.79c-7.95,4.59-14.66,17.55-14.66,28.31v112.67c0,3.57.76,6.6,2.13,8.54,1.1,1.55,2.54,2.34,4.28,2.34Z"/>
      <path class="cls-15" d="M252.42,351.83c1.67,0,2.93,3.18,2.93,7.4v112.66c0,9.51-6.04,21.33-12.91,25.31l-93.56,54-9.1,5.26c-1.56.9-2.56,1.03-3.02,1.03-.44,0-.87-.07-1.44-.87-.45-.63-1.48-2.53-1.48-6.53v-112.67c0-9.5,6.03-21.32,12.91-25.29l81.04-46.79,21.6-12.48c1.56-.9,2.56-1.03,3.02-1.03h0ZM252.42,344.87c-2,0-4.2.63-6.51,1.97l-21.6,12.48-81.04,46.79c-9.06,5.23-16.4,19.25-16.4,31.32v112.67c0,8.99,4.07,14.36,9.89,14.36,2,0,4.2-.63,6.51-1.97l9.09-5.26,93.56-54.01c9.06-5.23,16.39-19.26,16.4-31.34v-112.66c0-8.99-4.08-14.37-9.9-14.37h0Z"/>
      <path class="cls-19" d="M347.59,230.67c0,2.97,2.41,5.39,5.39,5.39s5.39-2.41,5.39-5.39-2.41-5.39-5.39-5.39-5.39,2.41-5.39,5.39Z"/>
      <path class="cls-19" d="M347.59,248.73c0,2.97,2.41,5.39,5.39,5.39s5.39-2.41,5.39-5.39-2.41-5.39-5.39-5.39-5.39,2.41-5.39,5.39Z"/>
      <path class="cls-19" d="M347.59,266.8c0,2.97,2.41,5.39,5.39,5.39s5.39-2.41,5.39-5.39-2.41-5.39-5.39-5.39-5.39,2.41-5.39,5.39Z"/>
      <path class="cls-19" d="M347.59,284.86c0,2.97,2.41,5.39,5.39,5.39s5.39-2.41,5.39-5.39c0-2.97-2.41-5.39-5.39-5.39s-5.39,2.41-5.39,5.39Z"/>
      <path class="cls-19" d="M347.59,302.92c0,2.97,2.41,5.39,5.39,5.39s5.39-2.41,5.39-5.39c0-2.97-2.41-5.39-5.39-5.39s-5.39,2.41-5.39,5.39Z"/>
      <path class="cls-19" d="M347.59,320.98c0,2.97,2.41,5.39,5.39,5.39s5.39-2.41,5.39-5.39-2.41-5.39-5.39-5.39-5.39,2.41-5.39,5.39Z"/>
      <path class="cls-19" d="M347.59,339.04c0,2.97,2.41,5.39,5.39,5.39s5.39-2.41,5.39-5.39-2.41-5.39-5.39-5.39-5.39,2.41-5.39,5.39Z"/>
      <path class="cls-19" d="M347.59,357.11c0,2.97,2.41,5.39,5.39,5.39s5.39-2.41,5.39-5.39-2.41-5.39-5.39-5.39-5.39,2.41-5.39,5.39Z"/>
      <path class="cls-19" d="M347.59,375.17c0,2.97,2.41,5.39,5.39,5.39s5.39-2.41,5.39-5.39-2.41-5.39-5.39-5.39-5.39,2.41-5.39,5.39Z"/>
      <path class="cls-19" d="M347.59,393.23c0,2.97,2.41,5.39,5.39,5.39s5.39-2.41,5.39-5.39-2.41-5.39-5.39-5.39-5.39,2.41-5.39,5.39Z"/>
      <path class="cls-19" d="M347.59,411.29c0,2.97,2.41,5.39,5.39,5.39s5.39-2.41,5.39-5.39-2.41-5.39-5.39-5.39-5.39,2.41-5.39,5.39Z"/>
      <path class="cls-19" d="M347.59,429.35c0,2.97,2.41,5.39,5.39,5.39s5.39-2.41,5.39-5.39-2.41-5.39-5.39-5.39-5.39,2.41-5.39,5.39Z"/>
      <path class="cls-19" d="M347.59,447.41c0,2.97,2.41,5.39,5.39,5.39s5.39-2.41,5.39-5.39-2.41-5.39-5.39-5.39-5.39,2.41-5.39,5.39Z"/>
      <path class="cls-19" d="M347.59,465.48c0,2.97,2.41,5.39,5.39,5.39s5.39-2.41,5.39-5.39c0-2.97-2.41-5.39-5.39-5.39s-5.39,2.41-5.39,5.39Z"/>
      <path class="cls-19" d="M347.59,483.54c0,2.97,2.41,5.39,5.39,5.39s5.39-2.41,5.39-5.39-2.41-5.39-5.39-5.39-5.39,2.41-5.39,5.39Z"/>
      <path class="cls-19" d="M692.67,326.37c0-2.97-2.41-5.39-5.39-5.39s-5.39,2.41-5.39,5.39,2.41,5.39,5.39,5.39,5.39-2.41,5.39-5.39Z"/>
      <path class="cls-19" d="M681.89,344.43c0,2.97,2.41,5.39,5.39,5.39s5.39-2.41,5.39-5.39-2.41-5.39-5.39-5.39-5.39,2.41-5.39,5.39Z"/>
      <path class="cls-19" d="M681.89,362.49c0,2.97,2.41,5.39,5.39,5.39s5.39-2.41,5.39-5.39-2.41-5.39-5.39-5.39-5.39,2.41-5.39,5.39Z"/>
      <path class="cls-19" d="M681.89,380.55c0,2.97,2.41,5.39,5.39,5.39s5.39-2.41,5.39-5.39-2.41-5.39-5.39-5.39-5.39,2.41-5.39,5.39Z"/>
      <path class="cls-19" d="M681.89,398.61c0,2.97,2.41,5.39,5.39,5.39s5.39-2.41,5.39-5.39-2.41-5.39-5.39-5.39-5.39,2.41-5.39,5.39Z"/>
      <path class="cls-19" d="M681.89,416.68c0,2.97,2.41,5.39,5.39,5.39s5.39-2.41,5.39-5.39c0-2.97-2.41-5.39-5.39-5.39s-5.39,2.41-5.39,5.39Z"/>
      <path class="cls-19" d="M681.89,434.74c0,2.97,2.41,5.39,5.39,5.39s5.39-2.41,5.39-5.39c0-2.97-2.41-5.39-5.39-5.39s-5.39,2.41-5.39,5.39Z"/>
      <path class="cls-19" d="M681.89,452.8c0,2.97,2.41,5.39,5.39,5.39s5.39-2.41,5.39-5.39-2.41-5.39-5.39-5.39-5.39,2.41-5.39,5.39Z"/>
      <path class="cls-19" d="M681.89,470.86c0,2.97,2.41,5.39,5.39,5.39s5.39-2.41,5.39-5.39-2.41-5.39-5.39-5.39-5.39,2.41-5.39,5.39Z"/>
      <path class="cls-19" d="M681.89,488.92c0,2.97,2.41,5.39,5.39,5.39s5.39-2.41,5.39-5.39-2.41-5.39-5.39-5.39-5.39,2.41-5.39,5.39Z"/>
      <path class="cls-19" d="M681.89,506.98c0,2.97,2.41,5.39,5.39,5.39s5.39-2.41,5.39-5.39-2.41-5.39-5.39-5.39-5.39,2.41-5.39,5.39Z"/>
      <path class="cls-19" d="M681.89,525.05c0,2.97,2.41,5.39,5.39,5.39s5.39-2.41,5.39-5.39-2.41-5.39-5.39-5.39-5.39,2.41-5.39,5.39Z"/>
      <path class="cls-19" d="M681.89,543.11c0,2.97,2.41,5.39,5.39,5.39s5.39-2.41,5.39-5.39-2.41-5.39-5.39-5.39c-2.97,0-5.39,2.41-5.39,5.39Z"/>
      <path class="cls-19" d="M187.26,550.24c0,2.97,2.41,5.39,5.39,5.39s5.39-2.41,5.39-5.39-2.41-5.39-5.39-5.39-5.39,2.41-5.39,5.39Z"/>
      <path class="cls-19" d="M187.26,568.3c0,2.97,2.41,5.39,5.39,5.39,2.97,0,5.39-2.41,5.39-5.39,0-2.97-2.41-5.39-5.39-5.39s-5.39,2.41-5.39,5.39Z"/>
      <path class="cls-19" d="M187.26,586.36c0,2.97,2.41,5.39,5.39,5.39s5.39-2.41,5.39-5.39-2.41-5.39-5.39-5.39c-2.97,0-5.39,2.41-5.39,5.39Z"/>
      <path class="cls-19" d="M187.26,604.42c0,2.97,2.41,5.39,5.39,5.39,2.97,0,5.39-2.41,5.39-5.39,0-2.97-2.41-5.39-5.39-5.39s-5.39,2.41-5.39,5.39Z"/>
      <path class="cls-19" d="M187.26,622.48c0,2.97,2.41,5.39,5.39,5.39s5.39-2.41,5.39-5.39-2.41-5.39-5.39-5.39c-2.97,0-5.39,2.41-5.39,5.39Z"/>
      <path class="cls-19" d="M187.26,640.55c0,2.97,2.41,5.39,5.39,5.39,2.97,0,5.39-2.41,5.39-5.39s-2.41-5.39-5.39-5.39c-2.97,0-5.39,2.41-5.39,5.39Z"/>
      <path class="cls-19" d="M187.26,658.61c0,2.97,2.41,5.39,5.39,5.39,2.97,0,5.39-2.41,5.39-5.39s-2.41-5.39-5.39-5.39c-2.97,0-5.39,2.41-5.39,5.39Z"/>
      <path class="cls-19" d="M187.26,676.67c0,2.97,2.41,5.39,5.39,5.39,2.97,0,5.39-2.41,5.39-5.39s-2.41-5.39-5.39-5.39c-2.97,0-5.39,2.41-5.39,5.39Z"/>
      <path class="cls-19" d="M187.26,694.73c0,2.97,2.41,5.39,5.39,5.39s5.39-2.41,5.39-5.39-2.41-5.39-5.39-5.39-5.39,2.41-5.39,5.39Z"/>
      <path class="cls-19" d="M187.26,712.79c0,2.97,2.41,5.39,5.39,5.39,2.97,0,5.39-2.41,5.39-5.39s-2.41-5.39-5.39-5.39c-2.97,0-5.39,2.41-5.39,5.39Z"/>
      <path class="cls-19" d="M187.26,730.85c0,2.97,2.41,5.39,5.39,5.39,2.97,0,5.39-2.41,5.39-5.39s-2.41-5.39-5.39-5.39c-2.97,0-5.39,2.41-5.39,5.39Z"/>
      <path class="cls-19" d="M187.26,748.92c0,2.97,2.41,5.39,5.39,5.39,2.97,0,5.39-2.41,5.39-5.39s-2.41-5.39-5.39-5.39c-2.97,0-5.39,2.41-5.39,5.39Z"/>
      <path class="cls-19" d="M187.26,766.98c0,2.97,2.41,5.39,5.39,5.39,2.97,0,5.39-2.41,5.39-5.39s-2.41-5.39-5.39-5.39c-2.97,0-5.39,2.41-5.39,5.39Z"/>
      <path class="cls-19" d="M187.26,785.04c0,2.97,2.41,5.39,5.39,5.39s5.39-2.41,5.39-5.39-2.41-5.39-5.39-5.39-5.39,2.41-5.39,5.39Z"/>
      <path class="cls-19" d="M187.26,803.1c0,2.97,2.41,5.39,5.39,5.39s5.39-2.41,5.39-5.39-2.41-5.39-5.39-5.39c-2.97,0-5.39,2.41-5.39,5.39Z"/>
      <path class="cls-15" d="M335.77,177.41c-.82-.47-1.3-1.47-1.3-2.73v-39.34c0-2.05,1.23-4.36,2.8-5.27l48.87-28.22c.86-.5,1.77-.54,2.5-.12.82.47,1.3,1.47,1.3,2.73v39.34c0,2.05-1.23,4.36-2.8,5.27l-48.87,28.22c-.47.27-.96.41-1.42.41-.39,0-.76-.1-1.09-.29ZM387.14,103.59l-48.87,28.22c-.96.56-1.81,2.21-1.81,3.54v39.34c0,.66.2.94.3,1,.09.05.29,0,.51-.12l48.87-28.22c.96-.56,1.81-2.21,1.81-3.54v-39.34c0-.66-.2-.94-.3-1-.02-.01-.06-.02-.1-.02-.11,0-.26.05-.42.14Z"/>
      <path class="cls-15" d="M331.13,174.37c.52,0,1.07-.16,1.61-.47.48-.27.64-.88.36-1.36-.28-.48-.88-.64-1.36-.36-.37.21-.64.24-.76.17-.11-.07-.23-.32-.23-.74v-39.77c0-1.22.93-2.82,1.98-3.43l48.53-28.02c.37-.21.64-.24.76-.17.11.07.23.32.23.74,0,.55.45,1,1,1s1-.45,1-1c0-1.12-.45-2.02-1.22-2.47-.78-.45-1.78-.39-2.75.17l-48.53,28.02c-1.67.96-2.98,3.23-2.98,5.15v39.77c0,1.12.45,2.02,1.22,2.47.34.2.73.3,1.14.3Z"/>
      <path class="cls-15" d="M325.42,171.07c.52,0,1.07-.16,1.61-.47.48-.27.64-.88.36-1.36-.28-.48-.88-.64-1.36-.36-.37.21-.65.24-.76.17-.11-.07-.23-.32-.23-.74v-39.77c0-1.22.93-2.82,1.98-3.43l48.53-28.02c.37-.21.64-.24.76-.17.11.07.23.32.23.74,0,.55.45,1,1,1s1-.45,1-1c0-1.12-.45-2.02-1.22-2.47-.78-.45-1.78-.39-2.75.17l-48.53,28.02c-1.67.96-2.98,3.23-2.98,5.15v39.77c0,1.12.45,2.02,1.22,2.47.34.2.73.3,1.14.3Z"/>
      <path class="cls-15" d="M336.32,165.48l7.82-12.79c.72-1.18,1.65-1.6,1.93-1.48l7.27,3.17c1.48.64,3.46-.46,4.6-2.58l12.51-23.12c.76-1.4,1.81-1.83,2.06-1.69l15.98,8.28.91-1.77-15.98-8.28c-1.47-.76-3.55.34-4.73,2.51l-12.51,23.12c-.71,1.3-1.72,1.84-2.05,1.7l-7.27-3.17c-1.39-.61-3.25.35-4.42,2.27l-7.82,12.79,1.7,1.04Z"/>
      <path class="cls-15" d="M349.45,141.03c-1.21-.7-1.87-2.08-1.87-3.9,0-3.36,2.28-7.31,5.19-9,1.57-.91,3.11-1.03,4.32-.33,1.21.7,1.87,2.08,1.87,3.9,0,3.36-2.28,7.31-5.19,9-.9.52-1.78.78-2.6.78-.62,0-1.2-.15-1.72-.45ZM353.77,129.86c-2.28,1.31-4.2,4.64-4.2,7.27,0,1.06.32,1.86.88,2.18.56.32,1.4.2,2.33-.33,2.28-1.31,4.2-4.64,4.2-7.27,0-1.06-.32-1.86-.88-2.18-.21-.12-.45-.18-.72-.18-.47,0-1.02.17-1.6.51Z"/>
      <path class="cls-15" d="M173.84,496.67c-.82-.48-1.3-1.47-1.3-2.73v-39.38c0-2.05,1.23-4.36,2.81-5.27l48.92-28.24c.86-.5,1.78-.54,2.51-.12.82.48,1.3,1.47,1.3,2.73v39.38c0,2.05-1.23,4.37-2.81,5.27l-48.92,28.24c-.47.27-.96.41-1.42.41-.39,0-.76-.1-1.09-.29ZM225.26,422.78l-48.92,28.24c-.96.56-1.81,2.22-1.81,3.55v39.38c0,.66.2.94.3,1.01.09.05.29,0,.52-.12h0l48.92-28.24c.96-.56,1.81-2.21,1.81-3.55v-39.38c0-.66-.2-.94-.3-1-.02-.01-.06-.02-.1-.02-.11,0-.26.05-.42.14Z"/>
      <path class="cls-15" d="M169.2,493.63c.52,0,1.07-.16,1.61-.47.48-.28.64-.88.36-1.36-.28-.48-.89-.64-1.36-.36-.36.21-.64.24-.76.17-.11-.07-.23-.32-.23-.74v-39.8c0-1.22.93-2.83,1.98-3.44l48.57-28.04c.36-.21.64-.24.76-.17.11.07.23.32.23.74,0,.55.45,1,1,1s1-.45,1-1c0-1.12-.45-2.02-1.22-2.47-.78-.45-1.78-.39-2.75.17l-48.57,28.04c-1.67.96-2.98,3.23-2.98,5.16v39.8c0,1.12.45,2.02,1.22,2.47.34.2.73.3,1.14.3Z"/>
      <path class="cls-15" d="M163.48,490.33c.52,0,1.07-.16,1.61-.47.48-.28.64-.88.36-1.36-.28-.48-.89-.64-1.36-.36-.36.21-.64.24-.76.17-.11-.07-.23-.32-.23-.74v-39.8c0-1.22.93-2.83,1.98-3.44l48.57-28.04c.37-.21.64-.24.76-.17.11.07.23.32.23.74,0,.55.45,1,1,1s1-.45,1-1c0-1.12-.45-2.02-1.22-2.47-.78-.45-1.78-.39-2.75.17l-48.57,28.04c-1.67.96-2.98,3.23-2.98,5.16v39.8c0,1.12.45,2.02,1.22,2.47.34.2.73.3,1.14.3Z"/>
      <path class="cls-15" d="M205.4,467.75c-.9-.52-1.42-1.58-1.42-2.91,0-2.37,1.61-5.15,3.66-6.34,1.15-.66,2.33-.74,3.23-.22.9.52,1.42,1.58,1.42,2.91,0,2.37-1.61,5.16-3.66,6.34-.65.37-1.3.56-1.92.56-.47,0-.92-.11-1.32-.34ZM208.63,460.23c-1.44.83-2.66,2.95-2.66,4.62,0,.59.16,1.03.43,1.19.27.15.73.07,1.24-.22,1.44-.83,2.66-2.95,2.66-4.62,0-.59-.16-1.03-.43-1.19-.09-.05-.2-.08-.33-.08-.26,0-.57.1-.92.3Z"/>
      <path class="cls-15" d="M191.79,471.96c-.9-.52-1.42-1.58-1.42-2.91,0-2.37,1.61-5.16,3.66-6.34,1.15-.66,2.33-.74,3.23-.22.9.52,1.42,1.58,1.42,2.91,0,2.37-1.61,5.15-3.66,6.34-.65.37-1.3.56-1.92.56-.47,0-.92-.11-1.32-.34ZM195.02,464.43c-1.44.83-2.66,2.95-2.66,4.62,0,.59.16,1.03.43,1.19.27.16.73.07,1.24-.22,1.44-.83,2.66-2.95,2.66-4.62,0-.59-.16-1.03-.43-1.19-.09-.05-.2-.08-.33-.08-.25,0-.57.1-.91.3Z"/>
      <path class="cls-15" d="M191.36,470.04c.55,0,1-.45,1-1v-16.76s11.62-4.06,11.62-4.06v16.61c0,.55.45,1,1,1s1-.45,1-1v-18.02c0-.32-.16-.63-.42-.81-.26-.19-.6-.24-.9-.13l-13.61,4.75c-.4.14-.67.52-.67.94v17.47c0,.55.45,1,1,1Z"/>
      <path class="cls-19" d="M185.27,827.69h0c-2.22-1.28-3.44-3.06-3.44-5.01s1.22-3.73,3.44-5.01c4.13-2.39,10.61-2.39,14.74,0,2.22,1.28,3.44,3.06,3.44,5.01s-1.22,3.73-3.44,5.01c-2.07,1.19-4.72,1.79-7.37,1.79s-5.3-.6-7.37-1.79ZM186.58,819.94c-1.35.78-2.13,1.78-2.13,2.75s.78,1.97,2.13,2.75h0c3.29,1.9,8.84,1.9,12.13,0,1.35-.78,2.13-1.78,2.13-2.75s-.78-1.97-2.13-2.75c-1.64-.95-3.85-1.42-6.06-1.42s-4.42.47-6.06,1.42Z"/>
      <path class="cls-19" d="M345.61,507.92h0c-2.22-1.28-3.43-3.06-3.43-5.01s1.22-3.73,3.43-5.01c4.13-2.39,10.61-2.39,14.74,0,2.22,1.28,3.43,3.06,3.43,5.01s-1.22,3.73-3.43,5.01c-2.07,1.19-4.72,1.79-7.37,1.79s-5.3-.6-7.37-1.79ZM346.91,500.17c-1.35.78-2.13,1.78-2.13,2.75,0,.96.78,1.97,2.13,2.75,3.29,1.9,8.84,1.9,12.13,0,1.35-.78,2.13-1.78,2.13-2.75s-.78-1.97-2.13-2.75c-1.64-.95-3.85-1.42-6.06-1.42s-4.42.47-6.06,1.42Z"/>
      <path class="cls-19" d="M679.91,565.33c-2.22-1.28-3.44-3.06-3.44-5.01s1.22-3.73,3.44-5.01c4.13-2.39,10.61-2.39,14.74,0,2.22,1.28,3.44,3.06,3.44,5.01s-1.22,3.73-3.44,5.01c-2.07,1.19-4.72,1.79-7.37,1.79s-5.3-.6-7.37-1.79ZM681.22,557.57c-1.35.78-2.13,1.78-2.13,2.75,0,.97.78,1.97,2.13,2.75h0c3.29,1.9,8.84,1.9,12.13,0,1.35-.78,2.13-1.78,2.13-2.75s-.78-1.97-2.13-2.75c-1.64-.95-3.85-1.42-6.06-1.42s-4.42.47-6.06,1.42Z"/>
      <path class="cls-27" d="M666.53,268.8l102.65,59.26c9.06,5.23,16.4-.32,16.4-12.4v-112.66c0-12.08-7.34-26.1-16.4-31.33l-102.65-59.26c-9.06-5.23-16.4.32-16.4,12.4v112.66c0,12.08,7.34,26.1,16.4,31.33Z"/>
      <path class="cls-17" d="M675.32,110.26v112.67c0,12.07,7.34,26.09,16.4,31.32l81.04,46.79,21.6,12.48c9.06,5.23,16.4-.33,16.4-12.4v-112.66c0-12.08-7.34-26.11-16.4-31.34l-93.56-54.01-9.09-5.26c-9.06-5.23-16.4.33-16.4,12.39Z"/>
      <path class="cls-31" d="M750.5,341.08c4.73,0,6.41-5.86,6.41-10.88v-112.66c0-10.76-6.71-23.73-14.66-28.32l-102.64-59.26c-1.7-.98-3.35-1.5-4.77-1.5-4.73,0-6.4,5.86-6.4,10.88v112.67c0,10.76,6.71,23.73,14.66,28.32l102.64,59.26c1.7.98,3.35,1.5,4.77,1.5Z"/>
      <path class="cls-15" d="M634.83,131.94c.46,0,1.47.13,3.03,1.04l16.03,9.25,86.62,50.01c6.88,3.98,12.91,15.8,12.91,25.3v112.66c0,4.22-1.26,7.4-2.92,7.4-.46,0-1.47-.13-3.03-1.03l-40.79-23.55-61.86-35.71c-6.88-3.98-12.91-15.8-12.91-25.3v-112.67c0-4.22,1.25-7.39,2.92-7.4h0ZM634.83,124.98c-5.82,0-9.89,5.38-9.89,14.36v112.67c0,12.07,7.34,26.1,16.4,31.33l61.86,35.71,40.79,23.55c2.31,1.33,4.51,1.97,6.51,1.97,5.82,0,9.89-5.37,9.89-14.37v-112.66c0-12.08-7.34-26.1-16.4-31.33l-86.62-50.01-16.02-9.25c-2.31-1.34-4.52-1.97-6.51-1.97h0Z"/>
      <path class="cls-15" d="M721.27,282.4l-48.92-28.24h0c-1.57-.91-2.81-3.23-2.81-5.27v-39.38c0-1.26.47-2.25,1.3-2.73.73-.42,1.64-.38,2.51.12l48.92,28.24c1.57.91,2.81,3.22,2.81,5.27v39.38c0,1.26-.47,2.25-1.3,2.73-.33.19-.7.29-1.09.29-.46,0-.95-.14-1.42-.41ZM671.84,208.5c-.1.06-.3.35-.3,1.01v39.38c0,1.33.85,2.99,1.81,3.55l48.92,28.24c.22.13.43.18.52.12.1-.06.3-.35.3-1v-39.38c0-1.33-.85-2.99-1.81-3.55l-48.92-28.24c-.16-.09-.31-.14-.42-.14-.04,0-.07,0-.1.02ZM672.84,253.29h0s0,0,0,0Z"/>
      <path class="cls-15" d="M667.31,244.49c.34,0,.68-.18.86-.5.27-.48.11-1.09-.36-1.36-1.06-.61-1.98-2.22-1.98-3.44v-39.8c0-.42.11-.68.23-.74.12-.07.39-.04.76.17l48.57,28.04c1.06.61,1.98,2.21,1.98,3.43,0,.55.45,1,1,1s1-.45,1-1c0-1.93-1.31-4.19-2.98-5.16l-48.58-28.04c-.97-.56-1.97-.62-2.75-.17-.78.45-1.22,1.35-1.22,2.47v39.8c0,1.93,1.31,4.19,2.98,5.16.16.09.33.13.5.13Z"/>
      <path class="cls-15" d="M661.6,234.6c.34,0,.68-.18.86-.5.27-.48.11-1.09-.36-1.36-1.06-.61-1.98-2.21-1.98-3.43v-39.8c0-.42.11-.68.23-.74.11-.07.39-.04.76.17l48.57,28.04c1.06.61,1.98,2.21,1.98,3.43,0,.55.45,1,1,1s1-.45,1-1c0-1.93-1.31-4.2-2.98-5.16l-48.57-28.04c-.97-.56-1.97-.62-2.75-.17-.78.45-1.22,1.35-1.22,2.47v39.8c0,1.93,1.31,4.19,2.98,5.16.16.09.33.13.5.13Z"/>
      <path class="cls-15" d="M704.16,258.76l-16.54-18.61c-.26-.3-.33-.72-.16-1.08.17-.36.53-.59.93-.57l16.54.49c.54.02.97.46.97,1v18.12c0,.41-.26.78-.64.93-.12.04-.23.06-.35.06-.28,0-.55-.12-.74-.33ZM690.64,240.55l13.27,14.93v-14.54s-13.27-.39-13.27-.39Z"/>
      <g class="cls-16">
        <path class="cls-32" d="M799.55,762.26l8.09-33.36,57.78-4.67,13.45,7.76-57.78,4.67-8.09,33.36-13.45-7.76ZM840.8,786.07l8.09-33.36,57.78-4.67-13.45-7.76-57.78,4.67-8.09,33.36,13.45,7.76ZM868.59,802.12l8.09-33.36,57.78-4.67-13.45-7.76-57.78,4.67-8.09,33.36,13.45,7.76ZM896.39,818.16l8.09-33.36,57.78-4.67-13.45-7.76-57.78,4.67-8.09,33.36,13.45,7.76ZM924.18,834.21l8.09-33.36,57.78-4.67-13.45-7.76-57.78,4.67-8.09,33.36,13.45,7.76ZM951.97,850.26l8.09-33.36,57.78-4.67-13.45-7.76-57.78,4.67-8.09,33.36,13.45,7.76ZM979.77,866.3l8.09-33.36,57.78-4.67-13.45-7.76-57.78,4.67-8.09,33.36,13.45,7.76ZM1007.56,882.35l8.09-33.36,57.78-4.67-13.45-7.76-57.78,4.67-8.09,33.36,13.45,7.76ZM1035.36,898.4l8.09-33.36,57.78-4.67-13.45-7.76-57.78,4.67-8.09,33.36,13.45,7.76Z"/>
      </g>
      <g class="cls-24">
        <path class="cls-2" d="M667.03,839.06l8.09-33.36,57.78-4.67,13.45,7.76-57.78,4.67-8.09,33.36-13.45-7.76ZM708.27,862.88l8.09-33.36,57.78-4.67-13.45-7.76-57.78,4.67-8.09,33.36,13.45,7.76ZM736.07,878.92l8.09-33.36,57.78-4.67-13.45-7.76-57.78,4.67-8.09,33.36,13.45,7.76ZM763.86,894.97l8.09-33.36,57.78-4.67-13.45-7.76-57.78,4.67-8.09,33.36,13.45,7.76ZM791.65,911.02l8.09-33.36,57.78-4.67-13.45-7.76-57.78,4.67-8.09,33.36,13.45,7.76ZM819.45,927.06l8.09-33.36,57.78-4.67-13.45-7.76-57.78,4.67-8.09,33.36,13.45,7.76ZM847.24,943.11l8.09-33.36,57.78-4.67-13.45-7.76-57.78,4.67-8.09,33.36,13.45,7.76ZM875.04,959.16l8.09-33.36,57.78-4.67-13.45-7.76-57.78,4.67-8.09,33.36,13.45,7.76ZM902.83,975.21l8.09-33.36,57.78-4.67-13.45-7.76-57.78,4.67-8.09,33.36,13.45,7.76Z"/>
      </g>
      <g class="cls-34">
        <path class="cls-1" d="M534.5,915.87l8.09-33.36,57.78-4.67,13.45,7.76-57.78,4.67-8.09,33.36-13.45-7.76ZM575.75,939.68l8.09-33.36,57.78-4.67-13.45-7.76-57.78,4.67-8.09,33.36,13.45,7.76ZM603.54,955.73l8.09-33.36,57.78-4.67-13.45-7.76-57.78,4.67-8.09,33.36,13.45,7.76ZM631.33,971.78l8.09-33.36,57.78-4.67-13.45-7.76-57.78,4.67-8.09,33.36,13.45,7.76ZM659.13,987.82l8.09-33.36,57.78-4.67-13.45-7.76-57.78,4.67-8.09,33.36,13.45,7.76ZM686.92,1003.87l8.09-33.36,57.78-4.67-13.45-7.76-57.78,4.67-8.09,33.36,13.45,7.76ZM714.72,1019.92l8.09-33.36,57.78-4.67-13.45-7.76-57.78,4.67-8.09,33.36,13.45,7.76ZM742.51,1035.96l8.09-33.36,57.78-4.67-13.45-7.76-57.78,4.67-8.09,33.36,13.45,7.76ZM770.31,1052.01l8.09-33.36,57.78-4.67-13.45-7.76-57.78,4.67-8.09,33.36,13.45,7.76Z"/>
      </g>
      <path class="cls-12" d="M657.37,136.19c-.04,41.24,6.51,114.04,45.83,182.86l40.79,23.55c9.06,5.23,16.4-.32,16.4-12.4v-112.66c0-12.08-7.34-26.1-16.4-31.33l-86.62-50.01Z"/>
      <path class="cls-13" d="M311.59,84.72c15.92,31.7,44.52,78.3,85.85,106.83l13.35-7.71c9.06-5.23,16.39-19.26,16.4-31.34V39.84c0-12.07-7.35-17.63-16.41-12.39l-21.61,12.48-77.58,44.79Z"/>
      <path class="cls-11" d="M146.73,404.1c15.92,31.7,44.52,78.3,85.85,106.83l13.35-7.71c9.06-5.23,16.39-19.26,16.4-31.34v-112.66c0-12.07-7.35-17.63-16.41-12.39l-21.61,12.48-77.58,44.79Z"/>
    </g>
  </g>
</svg>